<svg xmlns="http://www.w3.org/2000/svg" viewBox="0 0 138 62.7"><defs><style>.cls-1{fill:#000;}</style></defs><g id="Layer_2" data-name="Layer 2"><g id="Layer_1-2" data-name="Layer 1"><path class="cls-1" d="M0,0H6.3V43.3H27v5.3H0Z"/><path class="cls-1" d="M62.7,30.8c0,12.9-8.9,18.5-17.4,18.5-9.4,0-16.7-6.9-16.7-17.9,0-11.7,7.6-18.5,17.3-18.5C55.9,12.9,62.7,20.2,62.7,30.8ZM35,31.2c0,7.6,4.4,13.4,10.6,13.4,6,0,10.6-5.7,10.6-13.5,0-5.9-3-13.4-10.4-13.4S35,24.6,35,31.2Z"/><path class="cls-1" d="M99.6,30.8c0,12.9-8.9,18.5-17.4,18.5-9.4,0-16.7-6.9-16.7-17.9,0-11.7,7.6-18.5,17.3-18.5C92.8,12.9,99.6,20.2,99.6,30.8ZM72,31.2c0,7.6,4.4,13.4,10.6,13.4,6,0,10.6-5.7,10.6-13.5,0-5.9-3-13.4-10.4-13.4C75.2,17.7,72,24.6,72,31.2Z"/><path class="cls-1" d="M105,25.1c0-4.5-.1-8.1-.3-11.4h5.7l.3,6h.1a13.84,13.84,0,0,1,12.4-6.8c8.4,0,14.8,7.1,14.8,17.7,0,12.5-7.6,18.7-15.8,18.7-4.6,0-8.6-2-10.7-5.5h-.1V62.7h-6.3V25.1Zm6.3,9.3a10.9,10.9,0,0,0,.3,2.6,9.82,9.82,0,0,0,9.5,7.4c6.7,0,10.6-5.5,10.6-13.5,0-7-3.7-13-10.4-13a10.15,10.15,0,0,0-9.6,7.8,10.87,10.87,0,0,0-.4,2.6Z"/></g></g></svg>
